<svg xmlns="http://www.w3.org/2000/svg" viewBox="0 0 480 1072" width="480" height="1072" role="img">
  <defs>
    <clipPath id="wcA"><rect x="0" y="0" width="424" height="260"/></clipPath>
    <clipPath id="wcB"><rect x="0" y="0" width="424" height="260"/></clipPath>
  </defs>

  <rect width="480" height="1072" fill="#ffffff"/>
  <text x="20" y="34" font-family="system-ui,-apple-system,'Segoe UI',Roboto,sans-serif" font-size="19" font-weight="600" fill="#55606e">How new brickwork meets old - diagrams,</text>

  <text x="20" y="62" font-family="system-ui,-apple-system,'Segoe UI',Roboto,sans-serif" font-size="19" font-weight="600" fill="#55606e">not photographs</text>

  <g transform="translate(20,90)">
    <text x="0" y="22" font-family="system-ui,-apple-system,'Segoe UI',Roboto,sans-serif" font-size="24" font-weight="700" fill="#1b2430">1. Butted against it</text>
    <rect x="0" y="34" width="221" height="30" rx="15" fill="#fceae4" stroke="#f0c9bc" stroke-width="1"/>
    <text x="110" y="55" text-anchor="middle" font-family="system-ui,-apple-system,'Segoe UI',Roboto,sans-serif" font-size="16" font-weight="600" fill="#96331a">The join stays visible</text>
    <g transform="translate(8,80)">
      <g clip-path="url(#wcA)">
        <rect width="424" height="260" fill="#e3dbcf"/>
        <rect x="0" y="0" width="80" height="26" fill="#a05c3a"/>
        <rect x="86" y="0" width="80" height="26" fill="#a05c3a"/>
        <rect x="172" y="0" width="37" height="26" fill="#a05c3a"/>
        <rect x="215" y="0" width="37" height="26" fill="#c08a5e"/>
        <rect x="258" y="0" width="80" height="26" fill="#c08a5e"/>
        <rect x="344" y="0" width="80" height="26" fill="#c08a5e"/>
        <rect x="-43" y="32" width="80" height="26" fill="#a05c3a"/>
        <rect x="43" y="32" width="80" height="26" fill="#a05c3a"/>
        <rect x="129" y="32" width="80" height="26" fill="#a05c3a"/>
        <rect x="215" y="32" width="80" height="26" fill="#c08a5e"/>
        <rect x="301" y="32" width="80" height="26" fill="#c08a5e"/>
        <rect x="387" y="32" width="80" height="26" fill="#c08a5e"/>
        <rect x="0" y="64" width="80" height="26" fill="#a05c3a"/>
        <rect x="86" y="64" width="80" height="26" fill="#a05c3a"/>
        <rect x="172" y="64" width="37" height="26" fill="#a05c3a"/>
        <rect x="215" y="64" width="37" height="26" fill="#c08a5e"/>
        <rect x="258" y="64" width="80" height="26" fill="#c08a5e"/>
        <rect x="344" y="64" width="80" height="26" fill="#c08a5e"/>
        <rect x="-43" y="96" width="80" height="26" fill="#a05c3a"/>
        <rect x="43" y="96" width="80" height="26" fill="#a05c3a"/>
        <rect x="129" y="96" width="80" height="26" fill="#a05c3a"/>
        <rect x="215" y="96" width="80" height="26" fill="#c08a5e"/>
        <rect x="301" y="96" width="80" height="26" fill="#c08a5e"/>
        <rect x="387" y="96" width="80" height="26" fill="#c08a5e"/>
        <rect x="0" y="128" width="80" height="26" fill="#a05c3a"/>
        <rect x="86" y="128" width="80" height="26" fill="#a05c3a"/>
        <rect x="172" y="128" width="37" height="26" fill="#a05c3a"/>
        <rect x="215" y="128" width="37" height="26" fill="#c08a5e"/>
        <rect x="258" y="128" width="80" height="26" fill="#c08a5e"/>
        <rect x="344" y="128" width="80" height="26" fill="#c08a5e"/>
        <rect x="-43" y="160" width="80" height="26" fill="#a05c3a"/>
        <rect x="43" y="160" width="80" height="26" fill="#a05c3a"/>
        <rect x="129" y="160" width="80" height="26" fill="#a05c3a"/>
        <rect x="215" y="160" width="80" height="26" fill="#c08a5e"/>
        <rect x="301" y="160" width="80" height="26" fill="#c08a5e"/>
        <rect x="387" y="160" width="80" height="26" fill="#c08a5e"/>
        <rect x="0" y="192" width="80" height="26" fill="#a05c3a"/>
        <rect x="86" y="192" width="80" height="26" fill="#a05c3a"/>
        <rect x="172" y="192" width="37" height="26" fill="#a05c3a"/>
        <rect x="215" y="192" width="37" height="26" fill="#c08a5e"/>
        <rect x="258" y="192" width="80" height="26" fill="#c08a5e"/>
        <rect x="344" y="192" width="80" height="26" fill="#c08a5e"/>
        <rect x="-43" y="224" width="80" height="26" fill="#a05c3a"/>
        <rect x="43" y="224" width="80" height="26" fill="#a05c3a"/>
        <rect x="129" y="224" width="80" height="26" fill="#a05c3a"/>
        <rect x="215" y="224" width="80" height="26" fill="#c08a5e"/>
        <rect x="301" y="224" width="80" height="26" fill="#c08a5e"/>
        <rect x="387" y="224" width="80" height="26" fill="#c08a5e"/>
        <rect x="0" y="256" width="80" height="26" fill="#a05c3a"/>
        <rect x="86" y="256" width="80" height="26" fill="#a05c3a"/>
        <rect x="172" y="256" width="37" height="26" fill="#a05c3a"/>
        <rect x="215" y="256" width="37" height="26" fill="#c08a5e"/>
        <rect x="258" y="256" width="80" height="26" fill="#c08a5e"/>
        <rect x="344" y="256" width="80" height="26" fill="#c08a5e"/>
      </g>
      <rect width="424" height="260" fill="none" stroke="#8a6a52" stroke-width="2"/>
    </g>
    <text x="0" y="376" font-family="system-ui,-apple-system,'Segoe UI',Roboto,sans-serif" font-size="18" fill="#1b2430">New work stops dead against the old.</text>
    <text x="0" y="401" font-family="system-ui,-apple-system,'Segoe UI',Roboto,sans-serif" font-size="18" fill="#1b2430">One straight joint runs the full</text>
    <text x="0" y="426" font-family="system-ui,-apple-system,'Segoe UI',Roboto,sans-serif" font-size="18" fill="#1b2430">height, and the eye follows it from</text>
    <text x="0" y="451" font-family="system-ui,-apple-system,'Segoe UI',Roboto,sans-serif" font-size="18" fill="#1b2430">across the street.</text>
  </g>

  <g transform="translate(20,581)">
    <text x="0" y="22" font-family="system-ui,-apple-system,'Segoe UI',Roboto,sans-serif" font-size="24" font-weight="700" fill="#1b2430">2. Toothed in</text>
    <rect x="0" y="34" width="207" height="30" rx="15" fill="#e4f0e9" stroke="#bcd9c9" stroke-width="1"/>
    <text x="103" y="55" text-anchor="middle" font-family="system-ui,-apple-system,'Segoe UI',Roboto,sans-serif" font-size="16" font-weight="600" fill="#276749">The join is broken up</text>
    <g transform="translate(8,80)">
      <g clip-path="url(#wcB)">
        <rect width="424" height="260" fill="#e3dbcf"/>
        <rect x="0" y="0" width="80" height="26" fill="#a05c3a"/>
        <rect x="86" y="0" width="80" height="26" fill="#a05c3a"/>
        <rect x="172" y="0" width="37" height="26" fill="#a05c3a"/>
        <rect x="215" y="0" width="37" height="26" fill="#c08a5e"/>
        <rect x="258" y="0" width="80" height="26" fill="#c08a5e"/>
        <rect x="344" y="0" width="80" height="26" fill="#c08a5e"/>
        <rect x="-43" y="32" width="80" height="26" fill="#a05c3a"/>
        <rect x="43" y="32" width="80" height="26" fill="#a05c3a"/>
        <rect x="129" y="32" width="37" height="26" fill="#a05c3a"/>
        <rect x="172" y="32" width="37" height="26" fill="#c08a5e"/>
        <rect x="215" y="32" width="80" height="26" fill="#c08a5e"/>
        <rect x="301" y="32" width="80" height="26" fill="#c08a5e"/>
        <rect x="387" y="32" width="80" height="26" fill="#c08a5e"/>
        <rect x="0" y="64" width="80" height="26" fill="#a05c3a"/>
        <rect x="86" y="64" width="80" height="26" fill="#a05c3a"/>
        <rect x="172" y="64" width="37" height="26" fill="#a05c3a"/>
        <rect x="215" y="64" width="37" height="26" fill="#c08a5e"/>
        <rect x="258" y="64" width="80" height="26" fill="#c08a5e"/>
        <rect x="344" y="64" width="80" height="26" fill="#c08a5e"/>
        <rect x="-43" y="96" width="80" height="26" fill="#a05c3a"/>
        <rect x="43" y="96" width="80" height="26" fill="#a05c3a"/>
        <rect x="129" y="96" width="37" height="26" fill="#a05c3a"/>
        <rect x="172" y="96" width="37" height="26" fill="#c08a5e"/>
        <rect x="215" y="96" width="80" height="26" fill="#c08a5e"/>
        <rect x="301" y="96" width="80" height="26" fill="#c08a5e"/>
        <rect x="387" y="96" width="80" height="26" fill="#c08a5e"/>
        <rect x="0" y="128" width="80" height="26" fill="#a05c3a"/>
        <rect x="86" y="128" width="80" height="26" fill="#a05c3a"/>
        <rect x="172" y="128" width="37" height="26" fill="#a05c3a"/>
        <rect x="215" y="128" width="37" height="26" fill="#c08a5e"/>
        <rect x="258" y="128" width="80" height="26" fill="#c08a5e"/>
        <rect x="344" y="128" width="80" height="26" fill="#c08a5e"/>
        <rect x="-43" y="160" width="80" height="26" fill="#a05c3a"/>
        <rect x="43" y="160" width="80" height="26" fill="#a05c3a"/>
        <rect x="129" y="160" width="37" height="26" fill="#a05c3a"/>
        <rect x="172" y="160" width="37" height="26" fill="#c08a5e"/>
        <rect x="215" y="160" width="80" height="26" fill="#c08a5e"/>
        <rect x="301" y="160" width="80" height="26" fill="#c08a5e"/>
        <rect x="387" y="160" width="80" height="26" fill="#c08a5e"/>
        <rect x="0" y="192" width="80" height="26" fill="#a05c3a"/>
        <rect x="86" y="192" width="80" height="26" fill="#a05c3a"/>
        <rect x="172" y="192" width="37" height="26" fill="#a05c3a"/>
        <rect x="215" y="192" width="37" height="26" fill="#c08a5e"/>
        <rect x="258" y="192" width="80" height="26" fill="#c08a5e"/>
        <rect x="344" y="192" width="80" height="26" fill="#c08a5e"/>
        <rect x="-43" y="224" width="80" height="26" fill="#a05c3a"/>
        <rect x="43" y="224" width="80" height="26" fill="#a05c3a"/>
        <rect x="129" y="224" width="37" height="26" fill="#a05c3a"/>
        <rect x="172" y="224" width="37" height="26" fill="#c08a5e"/>
        <rect x="215" y="224" width="80" height="26" fill="#c08a5e"/>
        <rect x="301" y="224" width="80" height="26" fill="#c08a5e"/>
        <rect x="387" y="224" width="80" height="26" fill="#c08a5e"/>
        <rect x="0" y="256" width="80" height="26" fill="#a05c3a"/>
        <rect x="86" y="256" width="80" height="26" fill="#a05c3a"/>
        <rect x="172" y="256" width="37" height="26" fill="#a05c3a"/>
        <rect x="215" y="256" width="37" height="26" fill="#c08a5e"/>
        <rect x="258" y="256" width="80" height="26" fill="#c08a5e"/>
        <rect x="344" y="256" width="80" height="26" fill="#c08a5e"/>
      </g>
      <rect width="424" height="260" fill="none" stroke="#8a6a52" stroke-width="2"/>
    </g>
    <text x="0" y="376" font-family="system-ui,-apple-system,'Segoe UI',Roboto,sans-serif" font-size="18" fill="#1b2430">Alternate bricks are cut out of the</text>
    <text x="0" y="401" font-family="system-ui,-apple-system,'Segoe UI',Roboto,sans-serif" font-size="18" fill="#1b2430">old wall so the new work bonds into</text>
    <text x="0" y="426" font-family="system-ui,-apple-system,'Segoe UI',Roboto,sans-serif" font-size="18" fill="#1b2430">it. No continuous joint for the eye to</text>
    <text x="0" y="451" font-family="system-ui,-apple-system,'Segoe UI',Roboto,sans-serif" font-size="18" fill="#1b2430">follow.</text>
  </g>
</svg>
